<?xml version="1.0" standalone="no"?>
<!DOCTYPE svg PUBLIC "-//W3C//DTD SVG 20010904//EN"
 "http://www.w3.org/TR/2001/REC-SVG-20010904/DTD/svg10.dtd">
<svg version="1.0" xmlns="http://www.w3.org/2000/svg"
 width="260.000000pt" height="260.000000pt" viewBox="0 0 260.000000 260.000000"
 preserveAspectRatio="xMidYMid meet">
<metadata>
Created by potrace 1.11, written by Peter Selinger 2001-2013
</metadata>
<g transform="translate(0.000000,260.000000) scale(0.100000,-0.100000)"
fill="#000000" stroke="none">
<path d="M1919 2452 l-36 -3 -22 -117 c-12 -64 -24 -130 -27 -147 -2 -16 -9
-54 -15 -84 -6 -30 -12 -64 -14 -75 -1 -12 -6 -37 -9 -56 -4 -19 -11 -62 -17
-95 -5 -33 -17 -94 -25 -135 -18 -97 -22 -121 -23 -142 -1 -26 -14 -22 -33 10
-25 41 -95 109 -142 136 -128 75 -311 91 -461 41 -245 -81 -422 -308 -508
-650 -24 -94 -28 -122 -34 -253 -20 -442 187 -726 522 -716 164 5 282 56 415
181 24 23 45 41 46 40 1 -1 -7 -42 -17 -92 -10 -50 -18 -93 -19 -96 0 -3 37
-6 82 -5 l82 1 8 35 c4 19 10 55 13 80 4 25 8 52 10 60 4 14 49 273 61 345 2
17 11 66 19 110 8 44 17 94 20 110 3 17 7 41 9 55 3 14 23 131 45 260 22 129
43 246 45 260 4 22 29 166 42 245 3 17 14 80 25 140 28 156 26 145 55 315 14
85 28 169 30 185 3 17 7 36 9 43 3 7 -5 12 -18 13 -12 0 -35 1 -52 2 -16 1
-46 1 -66 -1z m-542 -796 c109 -14 227 -105 283 -219 33 -67 33 -66 15 -167
-1 -8 -6 -35 -10 -60 -4 -25 -9 -52 -10 -61 -2 -9 -6 -32 -9 -50 -81 -501 -82
-507 -123 -557 -84 -103 -161 -159 -270 -198 -92 -32 -233 -29 -305 5 -198 95
-267 362 -193 750 11 56 65 202 97 261 94 173 234 279 394 298 38 4 74 7 79 6
6 -2 29 -5 52 -8z"/>
</g>
</svg>
